<?xml version="1.0" standalone="no"?><!DOCTYPE svg PUBLIC "-//W3C//DTD SVG 1.1//EN" "http://www.w3.org/Graphics/SVG/1.1/DTD/svg11.dtd"><svg t="1587105929176" class="icon" viewBox="0 0 1602 1024" version="1.1" xmlns="http://www.w3.org/2000/svg" p-id="2620" xmlns:xlink="http://www.w3.org/1999/xlink" width="35.982421875" height="23"><defs><style type="text/css"></style></defs><path d="M489.73913 1010.643478l-489.73913-489.73913 489.73913-489.739131a44.076522 44.076522 0 1 1 62.330435 62.330435l-427.408695 427.408696 427.408695 427.408695a44.076522 44.076522 0 1 1-62.330435 62.330435z" fill="#e6e6e6" p-id="2621"></path><path d="M978.365217 1009.530435L489.73913 520.904348 978.365217 32.278261A47.282087 47.282087 0 0 1 1044.034783 31.165217a44.121043 44.121043 0 0 1 1.113043 63.443479L618.852174 520.904348l426.295652 426.295652a44.121043 44.121043 0 0 1-1.113043 63.443478c-18.610087 17.363478-47.638261 16.918261-65.669566-1.113043z" fill="#e6e6e6" opacity=".5" p-id="2622"></path><path d="M1513.73913 1010.643478l-489.73913-489.73913 489.73913-489.739131a44.076522 44.076522 0 1 1 62.330435 62.330435l-427.408695 427.408696 427.408695 427.408695a44.076522 44.076522 0 1 1-62.330435 62.330435z" fill="#e6e6e6" opacity=".25" p-id="2623"></path></svg>