<?xml version="1.0" standalone="no"?><!DOCTYPE svg PUBLIC "-//W3C//DTD SVG 1.1//EN" "http://www.w3.org/Graphics/SVG/1.1/DTD/svg11.dtd"><svg t="1587108684913" class="icon" viewBox="0 0 1387 1024" version="1.1" xmlns="http://www.w3.org/2000/svg" p-id="5087" xmlns:xlink="http://www.w3.org/1999/xlink" width="31.1533203125" height="23"><defs><style type="text/css"></style></defs><path d="M849.92 353.28c-20.48 10.24-46.08 20.48-66.56 35.84-20.48 10.24-81.92 51.2-92.16 56.32-15.36 10.24-30.72 20.48-40.96 30.72-10.24 10.24-25.6 20.48-40.96 30.72-5.12 0-5.12 5.12-10.24 10.24 0-5.12 0-5.12-5.12-5.12s-5.12-5.12-10.24-5.12c0-5.12 5.12 0 10.24-10.24s0-10.24 5.12-15.36c5.12 0 15.36 0 20.48-5.12 10.24-5.12 15.36-10.24 20.48-20.48 5.12-5.12 5.12-10.24 5.12-15.36 0-10.24 0-20.48-10.24-20.48-10.24-5.12-30.72 15.36-30.72 15.36h-5.12c-10.24 0-20.48 0-30.72 5.12-5.12 0-15.36 20.48-25.6 35.84-10.24 15.36-30.72 35.84-30.72 46.08-5.12 30.72-5.12 56.32-5.12 87.04l15.36 76.8c5.12 20.48-5.12 46.08 0 61.44 5.12 51.2 163.84 76.8 168.96 71.68 5.12-5.12 5.12-5.12 5.12-10.24s5.12-5.12 5.12-15.36c0-5.12 0-10.24 5.12-15.36 5.12-10.24 61.44-61.44 92.16-92.16 5.12-5.12 10.24-15.36 10.24-20.48 5.12-5.12 0 0 5.12-10.24 5.12-15.36 5.12-25.6 10.24-40.96 0-5.12 0-15.36-5.12-20.48 10.24-10.24 15.36-25.6 15.36-40.96 0-10.24-5.12-20.48-15.36-20.48 5.12-10.24 10.24-20.48 10.24-30.72 0-10.24-5.12-20.48-20.48-30.72-10.24-5.12-25.6-10.24-40.96-5.12 0 0 40.96-30.72 51.2-40.96 5.12-5.12 25.6-15.36 35.84-25.6 10.24-5.12 15.36-10.24 20.48-15.36 5.12-5.12 5.12-10.24 5.12-15.36-5.12-10.24-10.24-20.48-30.72-15.36zM168.96 337.92V92.16L0 215.04zM199.68 143.36h97.28v148.48H199.68zM343.04 143.36h71.68v148.48H343.04zM450.56 143.36h40.96v148.48h-40.96z" p-id="5088"></path><path d="M1218.56 92.16v240.64l168.96-117.76zM1090.56 138.24h97.28v148.48h-97.28zM972.8 138.24h71.68v148.48H972.8zM896 138.24h40.96v148.48h-40.96z" p-id="5089"></path></svg>
